<?xml version="1.0" encoding="UTF-8"?>
<svg xmlns="http://www.w3.org/2000/svg" xmlns:xlink="http://www.w3.org/1999/xlink" width="24pt" height="24pt" viewBox="0 0 24 24" version="1.1">
<g id="surface1">
<path style=" stroke:none;fill-rule:nonzero;fill:rgb(0%,0%,0%);fill-opacity:1;" d="M 24.007812 13.042969 L 24.007812 21.394531 C 24.007812 22.835938 22.832031 24.011719 21.390625 24.011719 L 2.621094 24.011719 C 1.179688 24.011719 0.00390625 22.835938 0.00390625 21.394531 L 0.00390625 2.648438 C 0.00390625 1.203125 1.179688 0.0273438 2.621094 0.0273438 L 10.996094 0.0273438 C 10.542969 0.492188 10.246094 1.101562 10.179688 1.777344 L 2.621094 1.777344 C 2.144531 1.777344 1.753906 2.167969 1.753906 2.648438 L 1.753906 21.394531 C 1.753906 21.871094 2.144531 22.261719 2.621094 22.261719 L 21.386719 22.261719 C 21.867188 22.261719 22.257812 21.871094 22.257812 21.394531 L 22.257812 13.859375 C 22.917969 13.796875 23.527344 13.511719 24.007812 13.042969 Z M 19.964844 11.503906 L 14.242188 11.503906 L 23.503906 2.242188 C 24.015625 1.726562 24.015625 0.898438 23.503906 0.386719 C 22.992188 -0.128906 22.160156 -0.128906 21.648438 0.382812 L 12.386719 9.648438 L 12.386719 3.925781 C 12.386719 3.199219 11.796875 2.613281 11.070312 2.613281 C 10.710938 2.613281 10.382812 2.757812 10.144531 2.996094 C 9.90625 3.234375 9.757812 3.5625 9.757812 3.925781 L 9.757812 12.816406 C 9.757812 13.542969 10.347656 14.128906 11.070312 14.128906 L 19.964844 14.128906 C 20.691406 14.128906 21.277344 13.542969 21.277344 12.816406 C 21.277344 12.09375 20.691406 11.503906 19.964844 11.503906 Z M 19.964844 11.503906 "/>
</g>
</svg>
